<svg width="260" height="260" viewBox="0 0 260 260" fill="none" xmlns="http://www.w3.org/2000/svg">
<path d="M208 0H52C23.2812 0 0 23.2812 0 52V208C0 236.719 23.2812 260 52 260H208C236.719 260 260 236.719 260 208V52C260 23.2812 236.719 0 208 0Z" fill="#000007"/>
<path d="M40.482 177.788C39.9966 177.996 39.26 178.221 38.272 178.464C37.284 178.707 36.192 178.828 34.996 178.828C30.7493 178.828 28.626 177.051 28.626 173.498V82.056C29.1286 81.8653 29.9 81.64 30.94 81.38C31.9626 81.1373 33.072 81.016 34.268 81.016C38.4106 81.016 40.482 82.7927 40.482 86.346V139.698L72.93 108.29C75.3046 108.394 77.1593 108.957 78.494 109.98C79.8286 111.02 80.496 112.381 80.496 114.062C80.496 115.449 80.054 116.662 79.17 117.702C78.286 118.742 77.0986 119.955 75.608 121.342L51.74 142.22L84.786 171.86C84.5953 174.044 83.9366 175.777 82.81 177.06C81.666 178.343 80.158 178.984 78.286 178.984C76.7953 178.984 75.4346 178.611 74.204 177.866C72.9733 177.121 71.7166 176.063 70.434 174.694L40.482 144.586V177.788ZM98.436 167.414C101.504 163.271 104.711 159.224 108.056 155.272C111.419 151.32 114.781 147.264 118.144 143.104C114.001 138.077 110.145 133.311 106.574 128.804C103.021 124.315 99.372 119.652 95.628 114.816C96.0093 112.84 96.72 111.306 97.76 110.214C98.8 109.122 100.161 108.576 101.842 108.576C103.523 108.576 104.832 109.001 105.768 109.85C106.704 110.682 107.718 111.791 108.81 113.178C111.375 116.645 114.019 120.328 116.74 124.228C119.461 128.128 122.304 132.002 125.268 135.85C128.908 131.205 132.366 126.785 135.642 122.59C138.901 118.395 142.255 113.776 145.704 108.732C146.207 108.628 146.753 108.576 147.342 108.576C149.422 108.576 151.051 109.044 152.23 109.98C153.409 110.933 153.998 112.199 153.998 113.776C153.998 114.868 153.781 115.908 153.348 116.896C152.897 117.884 152.178 119.019 151.19 120.302C148.122 124.046 144.985 127.868 141.778 131.768C138.571 135.685 135.382 139.516 132.21 143.26C136.075 148.304 139.958 153.27 143.858 158.158C147.758 163.046 151.632 167.96 155.48 172.9C155.289 174.772 154.648 176.254 153.556 177.346C152.481 178.438 151.051 178.984 149.266 178.984C147.585 178.984 146.224 178.559 145.184 177.71C144.144 176.878 142.939 175.569 141.57 173.784C138.901 170.231 136.153 166.452 133.328 162.448C130.52 158.444 127.729 154.57 124.956 150.826C121.507 155.367 118.023 160.013 114.504 164.762C111.003 169.494 107.623 174.183 104.364 178.828H102.284C100.013 178.828 98.306 178.334 97.162 177.346C96.0353 176.358 95.472 175.127 95.472 173.654C95.472 172.857 95.6453 172.042 95.992 171.21C96.3386 170.361 97.1533 169.095 98.436 167.414ZM184.08 177.788C183.595 177.996 182.858 178.221 181.87 178.464C180.882 178.707 179.799 178.828 178.62 178.828C174.356 178.828 172.224 177.051 172.224 173.498V82.056C172.727 81.8653 173.498 81.64 174.538 81.38C175.578 81.1373 176.687 81.016 177.866 81.016C182.009 81.016 184.08 82.7927 184.08 86.346V113.022C186.455 111.653 189.254 110.422 192.478 109.33C195.685 108.238 199.316 107.692 203.372 107.692C207.515 107.692 211.293 108.238 214.708 109.33C218.105 110.422 221.043 112.077 223.522 114.296C225.983 116.515 227.907 119.331 229.294 122.746C230.681 126.143 231.374 130.121 231.374 134.68V177.788C230.871 177.996 230.1 178.221 229.06 178.464C228.037 178.707 226.98 178.828 225.888 178.828C221.641 178.828 219.518 177.051 219.518 173.498V134.966C219.518 129.038 217.889 124.644 214.63 121.784C211.371 118.907 207.073 117.468 201.734 117.468C198.267 117.468 195.026 118.092 192.01 119.34C189.011 120.571 186.368 122.07 184.08 123.838V177.788Z" fill="white"/>
</svg>
